<?xml version="1.0" standalone="no"?><!DOCTYPE svg PUBLIC "-//W3C//DTD SVG 1.1//EN" "http://www.w3.org/Graphics/SVG/1.1/DTD/svg11.dtd"><svg class="icon" width="200px" height="200.00px" viewBox="0 0 1024 1024" version="1.1" xmlns="http://www.w3.org/2000/svg"><path fill="#333333" d="M952.418845 533.725814 524.181424 87.600127c-6.738747-7.055696-19.114096-7.055696-25.871264 0L70.117767 533.725814c-6.845176 7.141654-6.616969 18.482957 0.524978 25.345248 7.125573 6.861268 18.504181 6.615675 25.348333-0.525979l56.793774-59.169611 0 424.199305c0 9.907651 8.008722 17.924231 17.915756 17.924231l215.107776 0c9.898846 0 17.924966-8.016581 17.924966-17.924231L403.73335 636.787074l215.082193 0 0 286.786679c0 9.907651 8.015886 17.924231 17.924966 17.924231l215.09652 0c9.908057 0 17.925989-8.016581 17.925989-17.924231L869.763017 499.384681l56.784564 59.159378c3.536691 3.676739 8.227719 5.531993 12.954564 5.531993 4.446448 0 8.927689-1.662873 12.391722-5.007037C959.035814 552.207747 959.280394 540.867468 952.418845 533.725814zM833.911039 905.649522 654.663427 905.649522 654.663427 618.863866c0-9.907651-8.018956-17.924231-17.924966-17.924231L385.807361 600.939635c-9.916243 0-17.925989 8.016581-17.925989 17.924231L367.881372 905.649522 188.634784 905.649522 188.634784 462.024795l322.629941-336.127434L833.911039 462.036052 833.911039 905.649522z" /></svg>