<?xml version="1.0" standalone="no"?><!DOCTYPE svg PUBLIC "-//W3C//DTD SVG 1.1//EN" "http://www.w3.org/Graphics/SVG/1.1/DTD/svg11.dtd"><svg class="icon" width="200px" height="200.00px" viewBox="0 0 1024 1024" version="1.1" xmlns="http://www.w3.org/2000/svg"><path fill="#333333" d="M668.240437 432.054203l-46.187949 0c0 59.518558-48.243771 107.766422-107.762329 107.766422-59.517535 0-107.769492-48.247864-107.769492-107.766422l-46.192042 0c0 85.025489 68.935022 153.950278 153.961534 153.950278S668.240437 517.079692 668.240437 432.054203L668.240437 432.054203zM960.749444 592.34284c0-78.136591-43.671639-146.102542-108.046808-181.172269C849.738118 226.673579 699.490162 77.967746 514.290159 77.967746c-185.219445 0-335.488891 148.733463-338.420663 333.259106C111.490234 446.313975 67.827805 514.24718 67.827805 592.34284c0 95.370091 65.176418 175.418218 153.624866 199.138456l-46.269813 148.614759 46.595224 0 15.398712-46.183855 41.658795-138.876977c-1.081635 0.021489-2.084475 0.317225-3.174296 0.317225-89.274256 0-161.64554-72.370261-161.64554-161.652703 0-53.035914 25.894763-99.68435 65.35038-129.157615 17.507746 123.366725 101.33699 225.119177 214.297714 268.243347L343.827813 893.9122l0.024559 0-14.308891 46.183855 46.184879 0 15.402805-46.183855 66.217121-190.382025c-134.277216-26.5067-235.565087-144.822386-235.565087-286.869566 0-161.54935 130.962727-292.507984 292.507984-292.507984 161.550373 0 292.504914 130.958634 292.504914 292.507984 0 142.048203-101.283778 260.362866-235.557924 286.869566l66.218144 190.382025 15.386432 46.183855 46.187949 0-14.431687-46.183855 0.144286 0-49.852408-161.134911c112.990401-43.128263 196.847274-144.901181 214.331483-268.304745 39.470967 29.473265 65.379033 76.150354 65.379033 129.231293 0 89.278349-72.304769 161.652703-161.509441 161.652703-1.098008 0-2.110057-0.299829-3.199878-0.325411l41.62605 138.881071-0.11461 0 15.390525 46.183855 46.6556 0L807.218722 791.488459C895.608841 767.777431 960.749444 687.721117 960.749444 592.34284L960.749444 592.34284zM960.749444 592.34284" /></svg>