<?xml version="1.0" standalone="no"?><!DOCTYPE svg PUBLIC "-//W3C//DTD SVG 1.1//EN" "http://www.w3.org/Graphics/SVG/1.1/DTD/svg11.dtd"><svg class="icon" width="200px" height="200.00px" viewBox="0 0 1024 1024" version="1.1" xmlns="http://www.w3.org/2000/svg"><path fill="#333333" d="M923.733333 260.266667c-6.4-138.666667-55.466667-162.133333-162.133333-162.133334h-488.533333c-106.666667 0-155.733333 23.466667-162.133334 162.133334l-21.333333 529.066666c0 89.6 72.533333 162.133333 162.133333 162.133334h529.066667c89.6 0 162.133333-72.533333 162.133333-164.266667l-19.2-526.933333z m-648.533333-121.6h488.533333c93.866667 0 117.333333 12.8 121.6 123.733333l17.066667 469.333333h-768l17.066667-469.333333c6.4-110.933333 29.866667-123.733333 123.733333-123.733333z m507.733333 772.266666h-529.066666c-68.266667 0-121.6-55.466667-121.6-121.6v-19.2h770.133333v17.066667c2.133333 70.4-53.333333 123.733333-119.466667 123.733333zM518.4 420.266667c113.066667 0 202.666667-91.733333 202.666667-202.666667 0-10.666667-8.533333-21.333333-21.333334-21.333333-10.666667 0-21.333333 8.533333-21.333333 21.333333 0 89.6-72.533333 162.133333-162.133333 162.133333-89.6 0-162.133333-72.533333-162.133334-162.133333 0-10.666667-8.533333-21.333333-21.333333-21.333333s-21.333333 8.533333-21.333333 21.333333c4.266667 110.933333 93.866667 202.666667 206.933333 202.666667z" /></svg>