<?xml version="1.0" standalone="no"?><!DOCTYPE svg PUBLIC "-//W3C//DTD SVG 1.1//EN" "http://www.w3.org/Graphics/SVG/1.1/DTD/svg11.dtd"><svg class="icon" width="200px" height="200.00px" viewBox="0 0 1024 1024" version="1.1" xmlns="http://www.w3.org/2000/svg"><path fill="#333333" d="M1016.957 999.715c0 13.279-11.471 24.063-25.311 24.063L25.472 1023.778c-7.045 0-13.715-2.742-18.578-7.605-4.738-4.801-7.232-11.223-6.857-17.955 4.114-65.21 31.669-116.454 84.161-156.354 43.889-33.353 99.248-53.987 147.999-72.191 59.849-22.194 111.592-41.396 127.116-75.246 2.493-27.306 2.307-48.564 2.12-73.003 0-3.491-0.063-7.294-0.063-11.097-23.44-22.069-47.442-68.981-56.108-110.532-8.354-4.021-15.959-10.037-22.443-17.83-12.718-15.243-20.822-37.281-24.5-65.366-3.366-26.682 5.112-47.099 16.521-60.377-31.046-121.94-21.882-214.768 27.181-275.988C343.54 28.677 412.054 1.652 505.629 0c0.125 0 0.313 0 0.499 0 61.344 0 107.229 15.648 131.292 44.232 43.578 8.167 76.557 29.113 98.377 62.373 23.69 35.878 33.041 84.847 27.804 145.755-3.74 43.453-13.715 81.824-20.946 104.766 11.222 13.279 19.325 33.384 15.897 59.537-3.554 28.085-11.782 50.06-24.377 65.303-6.482 7.792-14.088 13.808-22.442 17.768-5.61 28.022-16.895 52.741-23.815 66.083-7.418 14.649-18.327 32.604-30.921 44.637 0 3.803-0.124 7.605-0.124 11.346-0.188 24.251-0.437 45.385 1.87 72.629 15.585 33.789 67.33 53.052 126.678 75.246 61.968 23.129 132.229 49.313 179.171 100.869 9.103 10.162 7.856 25.249-2.743 33.914-10.723 8.603-26.683 7.48-35.908-2.618-38.652-42.579-99.996-65.335-159.222-87.466C697.394 788.501 631.935 764 610.115 708.453c-0.81-1.995-1.371-4.115-1.559-6.234-2.93-31.296-2.805-55.359-2.494-80.919 0.063-7.17 0.126-14.589 0.126-22.381 0-8.791 5.111-16.896 13.215-21.01 9.415-6.421 39.215-53.364 44.326-98.999 1.309-11.44 11.097-20.354 23.128-21.321 3.305-0.249 16.522-9.008 21.197-46.663 2.493-19.42-7.544-26.184-7.544-26.309-10.1-5.797-14.65-17.362-10.848-28.023 19.576-55.484 42.081-165.268 2.993-224.711-15.461-23.69-39.649-37.405-73.689-41.863-7.667-1.028-14.648-5.424-18.452-11.938-11.347-18.765-46.632-30.08-94.261-30.142-77.055 1.465-132.165 22.1-163.647 61.407-20.885 25.996-32.605 61.22-34.538 104.765-1.87 41.115 4.676 89.492 19.639 143.948 2.992 10.224-1.746 21.072-11.285 26.558-0.062 0.063-10.099 6.889-7.668 26.309 4.863 37.717 18.017 46.476 21.196 46.663 12.219 0.967 21.944 9.881 23.191 21.321 5.112 45.384 35.909 92.515 45.696 98.999 8.105 4.114 13.217 12.219 13.217 21.01 0 7.729 0.062 15.023 0.125 22.256 0.188 25.497 0.437 49.687-2.556 81.106-0.187 2.12-0.748 4.301-1.496 6.296-21.819 55.485-87.652 79.924-157.227 105.857-47.753 17.705-97.004 36.033-134.783 64.836C81.891 905.329 61.755 936.5 54.025 975.9l937.56 0C1005.487 975.775 1016.957 986.497 1016.957 999.715L1016.957 999.715z" /></svg>