<?xml version="1.0" standalone="no"?><!DOCTYPE svg PUBLIC "-//W3C//DTD SVG 1.1//EN" "http://www.w3.org/Graphics/SVG/1.1/DTD/svg11.dtd"><svg class="icon" width="200px" height="187.55px" viewBox="0 0 1092 1024" version="1.1" xmlns="http://www.w3.org/2000/svg"><path fill="#333333" d="M1092.266667 773.188267h-66.218667a245.282133 245.282133 0 0 0-243.985067-220.706134c-17.134933 0-34.065067 1.911467-50.244266 5.3248 17.8176-18.432 33.3824-39.048533 46.2848-61.44 3.413333 0.273067 6.621867 0.955733 10.0352 0.955734a153.258667 153.258667 0 0 0 153.258666-153.3952 153.258667 153.258667 0 0 0-153.258666-153.326934c-3.413333 0-6.7584 0.8192-10.0352 0.955734a311.022933 311.022933 0 0 0-41.233067-55.978667c16.520533-3.959467 33.518933-6.417067 51.2-6.417067a214.6304 214.6304 0 0 1 120.149333 392.533334A306.9952 306.9952 0 0 1 1092.266667 773.12zM572.279467 589.482667a443.528533 443.528533 0 0 1 314.231466 424.209066h-70.314666c0-2.116267 0.273067-4.232533 0.273066-6.417066 0-209.988267-169.984-380.177067-379.767466-380.177067a379.972267 379.972267 0 0 0-379.630934 380.245333c0 2.048 0.273067 4.232533 0.273067 6.3488H0a443.460267 443.460267 0 0 1 276.48-410.760533A316.757333 316.757333 0 0 1 411.648 0a316.6208 316.6208 0 0 1 160.631467 589.482667zM411.716267 63.351467a253.405867 253.405867 0 0 0 0 506.948266 253.405867 253.405867 0 0 0 0-506.948266z"  /></svg>