<?xml version="1.0" standalone="no"?><!DOCTYPE svg PUBLIC "-//W3C//DTD SVG 1.1//EN" "http://www.w3.org/Graphics/SVG/1.1/DTD/svg11.dtd"><svg class="icon" width="200px" height="200.00px" viewBox="0 0 1024 1024" version="1.1" xmlns="http://www.w3.org/2000/svg"><path fill="#333333" d="M571.196755 1001.423053c-14.088015 0-26.550489-10.024164-29.169416-24.383102-2.980157-16.165094 7.76647-31.607726 23.931564-34.497575 98.254873-17.880942 170.772026-65.653761 215.564688-142.05415 60.957756-103.763648 57.52606-240.038099 27.092336-329.081576-18.513096-54.184672-52.739748-134.197372-110.627039-207.34668-5.328159-6.773084-10.475703-12.914014-15.352324-18.603404-5.960314 90.217479-26.731105 177.635418-27.814798 182.241115-3.431696 14.088015-16.526325 23.750948-30.975571 22.667254-14.449246-1.083693-26.098951-12.462475-27.453568-26.91172-4.605697-50.120822-42.715583-132.933063-94.823176-205.901755-25.828027-36.213423-52.64944-66.647147-77.57439-88.140401-3.431696-2.980157-6.682776-5.599083-9.753241-8.037393 5.960314 24.654026 11.649705 55.268366 14.358938 89.765941 4.154158 52.288209 0.81277 102.770262-9.933856 150.272158-13.546168 59.783755-39.012964 114.600582-75.49731 162.915248-8.488932 11.198166-23.570332 14.991093-36.303731 8.940471-12.733398-5.960314-19.506482-20.048329-16.255402-33.684805 0.090308-0.180616 6.502161-28.9888 3.251081-63.125143-1.806156-18.603404-6.050622-35.039421-12.64309-49.127436-10.566011 53.010671-30.885263 132.66214-68.724227 213.668224-36.032807 77.303466-34.046036 163.637711 5.147544 225.227622 16.436017 25.828027 38.561425 46.147279 65.744069 60.41591 29.80157 15.713555 65.021607 23.66064 104.666726 23.66064 25.918335-0.270923 98.074257-10.20478 120.831819-52.830056 7.76647-14.449246 25.737719-19.958021 40.186966-12.191551 14.449246 7.76647 19.958021 25.737719 12.191551 40.186965-44.250816 82.812241-167.791869 84.257166-173.02972 84.257166-96.539025 0-174.926184-39.645119-220.712233-111.620425-24.744334-38.922656-38.651733-85.70209-40.096657-135.371373-1.444925-49.217744 9.301702-99.970721 31.156186-146.93077C218.544845 447.113855 232.000706 319.057412 232.091013 317.793103c0.993386-10.385396 7.405239-19.416174 16.797249-23.841255 9.39201-4.425082 20.40956-3.702619 29.079107 2.077079 34.226651 22.667255 57.616368 56.622983 68.633919 99.428874 5.689391-15.262016 10.295088-30.975571 13.997707-47.140665 9.482318-41.541582 12.372167-86.063321 8.669547-132.391217-6.321545-79.109622-29.711262-135.281065-29.982185-135.822912-3.883235-9.211394-2.889849-19.687098 2.618926-27.995414S356.806068 38.832349 366.739924 38.832349c28.537261 0 60.777141 15.352324 95.997178 45.605432 28.446953 24.47341 58.609754 58.609754 87.147015 98.616104 26.279566 36.845577 49.669283 76.400388 67.821148 114.781197 5.057236-39.012964 8.488932-82.45101 6.502161-120.741511-0.632155-11.469089 5.508775-22.306023 15.713555-27.724491 10.20478-5.418467 22.576947-4.425082 31.788341 2.43831 4.966928 3.702619 122.547667 93.829791 193.078049 300.363701 18.513096 54.27498 27.002028 118.75474 23.750948 181.428345-3.702619 72.878384-23.028486 140.970456-55.90052 196.870976-25.376488 43.167122-58.609754 79.290237-98.887027 107.375959-44.250816 30.885263-97.171179 52.017285-157.13555 62.944528-1.806156 0.451539-3.612311 0.632155-5.418467 0.632154z"  /></svg>